<svg xmlns="http://www.w3.org/2000/svg" width="1200" height="700" viewBox="0 0 1200 700"><defs><marker id="arrow" markerWidth="10" markerHeight="10" refX="10" refY="5" orient="auto" markerUnits="strokeWidth"><path d="M0,0 L10,5 L0,10 z" fill="#333"/></marker></defs><rect x="20" y="20" width="1160" height="660" fill="#eef2f7" stroke="#333"/><text x="600" y="40" font-family="Arial" font-size="14" text-anchor="middle">Network: monitor</text><rect x="60" y="80" width="220" height="60" rx="8" ry="8" fill="#f5f7fa" stroke="#333"/><text x="170" y="110" font-family="Arial" font-size="12" text-anchor="middle" fill="#111">reverse-proxy (Nginx)</text><rect x="60" y="180" width="220" height="60" rx="8" ry="8" fill="#f5f7fa" stroke="#333"/><text x="170" y="210" font-family="Arial" font-size="12" text-anchor="middle" fill="#111">transaction-validator-blue</text><rect x="60" y="280" width="220" height="60" rx="8" ry="8" fill="#f5f7fa" stroke="#333"/><text x="170" y="310" font-family="Arial" font-size="12" text-anchor="middle" fill="#111">transaction-validator-green</text><rect x="340" y="80" width="220" height="60" rx="8" ry="8" fill="#f5f7fa" stroke="#333"/><text x="450" y="110" font-family="Arial" font-size="12" text-anchor="middle" fill="#111">prometheus</text><rect x="340" y="180" width="220" height="60" rx="8" ry="8" fill="#f5f7fa" stroke="#333"/><text x="450" y="210" font-family="Arial" font-size="12" text-anchor="middle" fill="#111">grafana</text><rect x="340" y="280" width="220" height="60" rx="8" ry="8" fill="#f5f7fa" stroke="#333"/><text x="450" y="310" font-family="Arial" font-size="12" text-anchor="middle" fill="#111">loki</text><rect x="340" y="380" width="220" height="60" rx="8" ry="8" fill="#f5f7fa" stroke="#333"/><text x="450" y="410" font-family="Arial" font-size="12" text-anchor="middle" fill="#111">promtail</text><rect x="340" y="480" width="220" height="60" rx="8" ry="8" fill="#f5f7fa" stroke="#333"/><text x="450" y="510" font-family="Arial" font-size="12" text-anchor="middle" fill="#111">jaeger</text><line x1="170" y1="140" x2="170" y2="180" stroke="#333" stroke-width="2" marker-end="url(#arrow)"/><line x1="170" y1="240" x2="170" y2="280" stroke="#333" stroke-width="2" marker-end="url(#arrow)"/><line x1="170" y1="110" x2="450" y2="110" stroke="#333" stroke-width="2" marker-end="url(#arrow)"/><line x1="170" y1="210" x2="450" y2="110" stroke="#333" stroke-width="2" marker-end="url(#arrow)"/><line x1="170" y1="310" x2="450" y2="110" stroke="#333" stroke-width="2" marker-end="url(#arrow)"/><line x1="170" y1="210" x2="450" y2="210" stroke="#333" stroke-width="2" marker-end="url(#arrow)"/><line x1="170" y1="310" x2="450" y2="210" stroke="#333" stroke-width="2" marker-end="url(#arrow)"/><line x1="170" y1="210" x2="450" y2="310" stroke="#333" stroke-width="2" marker-end="url(#arrow)"/><line x1="170" y1="310" x2="450" y2="310" stroke="#333" stroke-width="2" marker-end="url(#arrow)"/><line x1="170" y1="210" x2="450" y2="510" stroke="#333" stroke-width="2" marker-end="url(#arrow)"/><line x1="170" y1="310" x2="450" y2="510" stroke="#333" stroke-width="2" marker-end="url(#arrow)"/></svg>