<svg xmlns="http://www.w3.org/2000/svg" width="1000" height="600" viewBox="0 0 1000 600"><defs><marker id="arrow" markerWidth="10" markerHeight="10" refX="10" refY="5" orient="auto" markerUnits="strokeWidth"><path d="M0,0 L10,5 L0,10 z" fill="#333"/></marker></defs><rect x="60" y="60" width="240" height="60" rx="8" ry="8" fill="#f5f7fa" stroke="#333"/><text x="180" y="90" font-family="Arial" font-size="12" text-anchor="middle" fill="#111">Transaction-Validator</text><rect x="380" y="60" width="220" height="60" rx="8" ry="8" fill="#f5f7fa" stroke="#333"/><text x="490" y="90" font-family="Arial" font-size="12" text-anchor="middle" fill="#111">Prometheus</text><rect x="700" y="60" width="220" height="60" rx="8" ry="8" fill="#f5f7fa" stroke="#333"/><text x="810" y="90" font-family="Arial" font-size="12" text-anchor="middle" fill="#111">Grafana</text><line x1="300" y1="90" x2="380" y2="90" stroke="#333" stroke-width="2" marker-end="url(#arrow)"/><line x1="600" y1="90" x2="700" y2="90" stroke="#333" stroke-width="2" marker-end="url(#arrow)"/><rect x="60" y="220" width="240" height="60" rx="8" ry="8" fill="#f5f7fa" stroke="#333"/><text x="180" y="250" font-family="Arial" font-size="12" text-anchor="middle" fill="#111">Promtail (reads docker logs)</text><rect x="380" y="220" width="220" height="60" rx="8" ry="8" fill="#f5f7fa" stroke="#333"/><text x="490" y="250" font-family="Arial" font-size="12" text-anchor="middle" fill="#111">Loki</text><line x1="300" y1="250" x2="380" y2="250" stroke="#333" stroke-width="2" marker-end="url(#arrow)"/><line x1="600" y1="250" x2="700" y2="90" stroke="#333" stroke-width="2" marker-end="url(#arrow)"/><rect x="380" y="380" width="220" height="60" rx="8" ry="8" fill="#f5f7fa" stroke="#333"/><text x="490" y="410" font-family="Arial" font-size="12" text-anchor="middle" fill="#111">Jaeger</text><line x1="300" y1="90" x2="380" y2="410" stroke="#333" stroke-width="2" marker-end="url(#arrow)"/></svg>