<svg xmlns="http://www.w3.org/2000/svg" width="1200" height="700" viewBox="0 0 1200 700"><defs><marker id="arrow" markerWidth="10" markerHeight="10" refX="10" refY="5" orient="auto" markerUnits="strokeWidth"><path d="M0,0 L10,5 L0,10 z" fill="#333"/></marker></defs><rect x="40" y="60" width="160" height="60" rx="8" ry="8" fill="#f5f7fa" stroke="#333"/><text x="120" y="90" font-family="Arial" font-size="12" text-anchor="middle" fill="#111">Developer</text><rect x="260" y="60" width="220" height="60" rx="8" ry="8" fill="#f5f7fa" stroke="#333"/><text x="370" y="90" font-family="Arial" font-size="12" text-anchor="middle" fill="#111">GitHub Actions build_test</text><rect x="520" y="60" width="220" height="60" rx="8" ry="8" fill="#f5f7fa" stroke="#333"/><text x="630" y="90" font-family="Arial" font-size="12" text-anchor="middle" fill="#111">GitHub Actions deploy_canary</text><rect x="800" y="60" width="220" height="60" rx="8" ry="8" fill="#f5f7fa" stroke="#333"/><text x="910" y="90" font-family="Arial" font-size="12" text-anchor="middle" fill="#111">Docker Compose Stack</text><line x1="200" y1="90" x2="260" y2="90" stroke="#333" stroke-width="2" marker-end="url(#arrow)"/><line x1="480" y1="90" x2="520" y2="90" stroke="#333" stroke-width="2" marker-end="url(#arrow)"/><line x1="740" y1="90" x2="800" y2="90" stroke="#333" stroke-width="2" marker-end="url(#arrow)"/><rect x="260" y="200" width="220" height="60" rx="8" ry="8" fill="#f5f7fa" stroke="#333"/><text x="370" y="230" font-family="Arial" font-size="12" text-anchor="middle" fill="#111">Nginx Proxy</text><rect x="520" y="180" width="220" height="60" rx="8" ry="8" fill="#f5f7fa" stroke="#333"/><text x="630" y="210" font-family="Arial" font-size="12" text-anchor="middle" fill="#111">Transaction-Validator BLUE</text><rect x="520" y="260" width="220" height="60" rx="8" ry="8" fill="#f5f7fa" stroke="#333"/><text x="630" y="290" font-family="Arial" font-size="12" text-anchor="middle" fill="#111">Transaction-Validator GREEN</text><line x1="370" y1="120" x2="370" y2="200" stroke="#333" stroke-width="2" marker-end="url(#arrow)"/><line x1="480" y1="210" x2="520" y2="210" stroke="#333" stroke-width="2" marker-end="url(#arrow)"/><line x1="480" y1="240" x2="520" y2="240" stroke="#333" stroke-width="2" marker-end="url(#arrow)"/><rect x="840" y="180" width="220" height="60" rx="8" ry="8" fill="#f5f7fa" stroke="#333"/><text x="950" y="210" font-family="Arial" font-size="12" text-anchor="middle" fill="#111">Prometheus</text><rect x="840" y="260" width="220" height="60" rx="8" ry="8" fill="#f5f7fa" stroke="#333"/><text x="950" y="290" font-family="Arial" font-size="12" text-anchor="middle" fill="#111">Grafana</text><line x1="630" y1="210" x2="840" y2="210" stroke="#333" stroke-width="2" marker-end="url(#arrow)"/><line x1="950" y1="210" x2="950" y2="260" stroke="#333" stroke-width="2" marker-end="url(#arrow)"/><rect x="260" y="380" width="220" height="60" rx="8" ry="8" fill="#f5f7fa" stroke="#333"/><text x="370" y="410" font-family="Arial" font-size="12" text-anchor="middle" fill="#111">Promtail (Docker logs)</text><rect x="520" y="380" width="220" height="60" rx="8" ry="8" fill="#f5f7fa" stroke="#333"/><text x="630" y="410" font-family="Arial" font-size="12" text-anchor="middle" fill="#111">Loki</text><line x1="370" y1="240" x2="370" y2="380" stroke="#333" stroke-width="2" marker-end="url(#arrow)"/><line x1="480" y1="410" x2="520" y2="410" stroke="#333" stroke-width="2" marker-end="url(#arrow)"/><line x1="630" y1="410" x2="950" y2="290" stroke="#333" stroke-width="2" marker-end="url(#arrow)"/><rect x="840" y="380" width="220" height="60" rx="8" ry="8" fill="#f5f7fa" stroke="#333"/><text x="950" y="410" font-family="Arial" font-size="12" text-anchor="middle" fill="#111">Jaeger</text><line x1="630" y1="230" x2="840" y2="410" stroke="#333" stroke-width="2" marker-end="url(#arrow)"/></svg>