<svg xmlns="http://www.w3.org/2000/svg" width="1000" height="600" viewBox="0 0 1000 600"><defs><marker id="arrow" markerWidth="10" markerHeight="10" refX="10" refY="5" orient="auto" markerUnits="strokeWidth"><path d="M0,0 L10,5 L0,10 z" fill="#333"/></marker></defs><rect x="60" y="60" width="240" height="60" rx="8" ry="8" fill="#f5f7fa" stroke="#333"/><text x="180" y="90" font-family="Arial" font-size="12" text-anchor="middle" fill="#111">SLA 99.5% mensual</text><rect x="380" y="60" width="240" height="60" rx="8" ry="8" fill="#f5f7fa" stroke="#333"/><text x="500" y="90" font-family="Arial" font-size="12" text-anchor="middle" fill="#111">SLO disponibilidad 99.7%</text><rect x="380" y="140" width="240" height="60" rx="8" ry="8" fill="#f5f7fa" stroke="#333"/><text x="500" y="170" font-family="Arial" font-size="12" text-anchor="middle" fill="#111">SLO latencia p95 < 250ms</text><rect x="380" y="220" width="240" height="60" rx="8" ry="8" fill="#f5f7fa" stroke="#333"/><text x="500" y="250" font-family="Arial" font-size="12" text-anchor="middle" fill="#111">SLO error rate < 0.8%</text><line x1="300" y1="90" x2="380" y2="90" stroke="#333" stroke-width="2" marker-end="url(#arrow)"/><line x1="300" y1="90" x2="380" y2="170" stroke="#333" stroke-width="2" marker-end="url(#arrow)"/><line x1="300" y1="90" x2="380" y2="250" stroke="#333" stroke-width="2" marker-end="url(#arrow)"/><rect x="700" y="60" width="240" height="60" rx="8" ry="8" fill="#f5f7fa" stroke="#333"/><text x="820" y="90" font-family="Arial" font-size="12" text-anchor="middle" fill="#111">SLI disponibilidad</text><rect x="700" y="140" width="240" height="60" rx="8" ry="8" fill="#f5f7fa" stroke="#333"/><text x="820" y="170" font-family="Arial" font-size="12" text-anchor="middle" fill="#111">SLI latencia p95</text><rect x="700" y="220" width="240" height="60" rx="8" ry="8" fill="#f5f7fa" stroke="#333"/><text x="820" y="250" font-family="Arial" font-size="12" text-anchor="middle" fill="#111">SLI error rate</text><line x1="620" y1="90" x2="700" y2="90" stroke="#333" stroke-width="2" marker-end="url(#arrow)"/><line x1="620" y1="170" x2="700" y2="170" stroke="#333" stroke-width="2" marker-end="url(#arrow)"/><line x1="620" y1="250" x2="700" y2="250" stroke="#333" stroke-width="2" marker-end="url(#arrow)"/><rect x="380" y="360" width="240" height="60" rx="8" ry="8" fill="#f5f7fa" stroke="#333"/><text x="500" y="390" font-family="Arial" font-size="12" text-anchor="middle" fill="#111">Presupuesto de errores ≈ 216 min/mes</text><line x1="300" y1="90" x2="380" y2="390" stroke="#333" stroke-width="2" marker-end="url(#arrow)"/></svg>